<svg xmlns="http://www.w3.org/2000/svg" viewBox="0 0 143.38 40.22"><defs><style>.cls-1{fill:#53e200;}</style></defs><g id="Layer_2" data-name="Layer 2"><g id="Layer_1-2" data-name="Layer 1"><path class="cls-1" d="M78.29,39.14,67.4,1.09h8.79l6.3,26.43h.32L89.75,1.09h7.53l6.93,26.49h.33l6.3-26.49h8.79L108.74,39.14H100.9L93.66,14.26h-.3L86.13,39.14Z"/><path class="cls-1" d="M59.05,12.77h-3.6A11.52,11.52,0,0,0,54,9.05a11.77,11.77,0,0,0-6.17-5,12.76,12.76,0,0,0-4.3-.71A12.39,12.39,0,0,0,36.78,5.3,13.49,13.49,0,0,0,31.91,11a20.7,20.7,0,0,0-1.83,9.15,20.74,20.74,0,0,0,1.83,9.18,13.52,13.52,0,0,0,4.87,5.65,12.46,12.46,0,0,0,6.76,1.92,12.76,12.76,0,0,0,4.3-.71,11.9,11.9,0,0,0,3.56-2,11.47,11.47,0,0,0,4.05-6.72h3.6a15.84,15.84,0,0,1-1.79,5,15.13,15.13,0,0,1-8,6.78,16.42,16.42,0,0,1-5.76,1,15.73,15.73,0,0,1-8.75-2.47,16.75,16.75,0,0,1-6-7,24.45,24.45,0,0,1-2.17-10.65A24.45,24.45,0,0,1,28.79,9.46a16.79,16.79,0,0,1,6-7A15.74,15.74,0,0,1,43.54,0,16.42,16.42,0,0,1,49.3,1a14.67,14.67,0,0,1,4.63,2.71,15.29,15.29,0,0,1,3.33,4.06A15.72,15.72,0,0,1,59.05,12.77Z"/><rect class="cls-1" x="129.22" y="13.03" width="14.16" height="14.16"/><rect class="cls-1" y="13.03" width="14.16" height="14.16"/></g></g></svg>