<svg xmlns="http://www.w3.org/2000/svg" viewBox="0 0 387.6 27.93"><defs><style>.cls-1{fill:#53e200;}</style></defs><g id="Layer_2" data-name="Layer 2"><g id="Layer_1-2" data-name="Layer 1"><path class="cls-1" d="M24.9,13.59H22.4a7.79,7.79,0,0,0-1-2.58,8.15,8.15,0,0,0-1.81-2.08,8.41,8.41,0,0,0-2.47-1.38,9,9,0,0,0-3-.49A8.64,8.64,0,0,0,9.44,8.4a9.4,9.4,0,0,0-3.38,3.94,14.29,14.29,0,0,0-1.27,6.35,14.35,14.35,0,0,0,1.27,6.37A9.34,9.34,0,0,0,9.44,29a8.63,8.63,0,0,0,4.7,1.33,8.75,8.75,0,0,0,3-.49,8.16,8.16,0,0,0,2.47-1.37,8,8,0,0,0,2.81-4.67h2.5a11.1,11.1,0,0,1-1.24,3.49,10.82,10.82,0,0,1-2.31,2.82A10.53,10.53,0,0,1,18.13,32a11.14,11.14,0,0,1-4,.68,10.89,10.89,0,0,1-6.08-1.72A11.53,11.53,0,0,1,3.9,26.08a16.81,16.81,0,0,1-1.51-7.39,16.85,16.85,0,0,1,1.51-7.4A11.65,11.65,0,0,1,8.06,6.44a11,11,0,0,1,6.08-1.71,11.36,11.36,0,0,1,4,.67,10.14,10.14,0,0,1,3.22,1.88,10.71,10.71,0,0,1,3.55,6.31Z" transform="translate(-2.39 -4.73)"/><path class="cls-1" d="M36.72,32.28V5.1h8.77a10.11,10.11,0,0,1,4.84,1A6.9,6.9,0,0,1,53.26,9a8.73,8.73,0,0,1,1,4.21,8.66,8.66,0,0,1-1,4.2,6.9,6.9,0,0,1-2.92,2.84,10.25,10.25,0,0,1-4.81,1H38.06V19h7.41a7.87,7.87,0,0,0,3.53-.7,4.63,4.63,0,0,0,2.11-2,6.37,6.37,0,0,0,.7-3.08,6.57,6.57,0,0,0-.7-3.11A4.8,4.8,0,0,0,49,8.06a7.67,7.67,0,0,0-3.56-.73H39.2v25ZM48.71,20l6.68,12.26H52.53L45.9,20Z" transform="translate(-2.39 -4.73)"/><path class="cls-1" d="M62.71,5.1h2.87L73.64,18h.24L81.93,5.1H84.8L75,20.51V32.28H72.52V20.51Z" transform="translate(-2.39 -4.73)"/><path class="cls-1" d="M95.45,32.28V5.1h8.78a9.61,9.61,0,0,1,4.83,1.11,7.26,7.26,0,0,1,2.94,3,9.11,9.11,0,0,1,1,4.27,9.16,9.16,0,0,1-1,4.29,7.17,7.17,0,0,1-2.92,3,9.54,9.54,0,0,1-4.81,1.11H97.36V19.66h6.84a7,7,0,0,0,3.54-.81,5.12,5.12,0,0,0,2.11-2.19,7.08,7.08,0,0,0,.69-3.18,7.07,7.07,0,0,0-.69-3.17,5.12,5.12,0,0,0-2.11-2.19,7.27,7.27,0,0,0-3.58-.79H97.93v25Z" transform="translate(-2.39 -4.73)"/><path class="cls-1" d="M123.16,7.33V5.1h19.71V7.33h-8.61v25h-2.49v-25Z" transform="translate(-2.39 -4.73)"/><path class="cls-1" d="M175.6,18.69a16.79,16.79,0,0,1-1.52,7.38,11.57,11.57,0,0,1-4.16,4.86,11.62,11.62,0,0,1-12.17,0,11.48,11.48,0,0,1-4.15-4.86,16.79,16.79,0,0,1-1.51-7.38,16.84,16.84,0,0,1,1.51-7.39,11.62,11.62,0,0,1,4.16-4.86,11.66,11.66,0,0,1,12.16,0,11.69,11.69,0,0,1,4.16,4.86A16.84,16.84,0,0,1,175.6,18.69Zm-2.42,0A14.71,14.71,0,0,0,172,12.43a9.44,9.44,0,0,0-3.33-4,9,9,0,0,0-9.57,0,9.42,9.42,0,0,0-3.34,4,14.61,14.61,0,0,0-1.23,6.27,14.67,14.67,0,0,0,1.22,6.25,9.57,9.57,0,0,0,3.33,4,9,9,0,0,0,9.59,0A9.29,9.29,0,0,0,172,25,14.45,14.45,0,0,0,173.18,18.69Z" transform="translate(-2.39 -4.73)"/><path class="cls-1" d="M232.15,29.59,225.9,8.38h6.42l2.9,13.05h.17l3.44-13h5l3.44,13.09h.17l2.9-13.09h6.42l-6.26,21.21H245l-3.6-11.85h-.17l-3.6,11.85Z" transform="translate(-2.39 -4.73)"/><path class="cls-1" d="M290.74,19a11.94,11.94,0,0,1-1.38,6,9.18,9.18,0,0,1-3.72,3.67,11.53,11.53,0,0,1-10.46,0,9.29,9.29,0,0,1-3.7-3.68,11.91,11.91,0,0,1-1.38-6,11.93,11.93,0,0,1,1.38-6,9.22,9.22,0,0,1,3.7-3.68,11.65,11.65,0,0,1,10.46,0A9.27,9.27,0,0,1,289.36,13,11.93,11.93,0,0,1,290.74,19Zm-5.93,0a8.87,8.87,0,0,0-.5-3.21,4.08,4.08,0,0,0-1.48-2,4.12,4.12,0,0,0-6.3,2A8.87,8.87,0,0,0,276,19a8.93,8.93,0,0,0,.5,3.22,4.19,4.19,0,0,0,1.48,2,4.12,4.12,0,0,0,6.3-2A8.93,8.93,0,0,0,284.81,19Z" transform="translate(-2.39 -4.73)"/><path class="cls-1" d="M306.23,29.59V8.38h9.15a9.28,9.28,0,0,1,4.14.86,6.35,6.35,0,0,1,2.75,2.47,7.29,7.29,0,0,1,1,3.88,7,7,0,0,1-1,3.84,6.33,6.33,0,0,1-2.83,2.36,10.52,10.52,0,0,1-4.24.8h-5.47V18.11H314a5.22,5.22,0,0,0,1.73-.25,2.21,2.21,0,0,0,1.11-.81,2.52,2.52,0,0,0,.39-1.46,2.6,2.6,0,0,0-.39-1.49,2.28,2.28,0,0,0-1.11-.85A5,5,0,0,0,314,13h-2V29.59Zm12.43-9.74,5.3,9.74H317.7l-5.18-9.74Z" transform="translate(-2.39 -4.73)"/><path class="cls-1" d="M346.7,29.59h-8.16V8.38h8.08a11.85,11.85,0,0,1,5.66,1.27A8.87,8.87,0,0,1,356,13.29a11.78,11.78,0,0,1,1.3,5.69,11.82,11.82,0,0,1-1.3,5.7,8.76,8.76,0,0,1-3.67,3.64A11.66,11.66,0,0,1,346.7,29.59Zm-2.4-4.89h2.19a6.42,6.42,0,0,0,2.69-.51,3.42,3.42,0,0,0,1.7-1.75,8.27,8.27,0,0,0,.58-3.46,8.16,8.16,0,0,0-.59-3.46,3.53,3.53,0,0,0-1.74-1.75,7.08,7.08,0,0,0-2.8-.5h-2Z" transform="translate(-2.39 -4.73)"/><path class="cls-1" d="M384.19,15a2.28,2.28,0,0,0-.77-1.62,3.18,3.18,0,0,0-2.09-.58,4.3,4.3,0,0,0-1.46.21,1.82,1.82,0,0,0-.83.58,1.43,1.43,0,0,0-.28.83,1.28,1.28,0,0,0,.14.68,1.56,1.56,0,0,0,.51.55,3.77,3.77,0,0,0,.9.44,9.68,9.68,0,0,0,1.31.36l1.74.37a13.73,13.73,0,0,1,3,1,7.47,7.47,0,0,1,2.05,1.44,5.19,5.19,0,0,1,1.17,1.85,6.69,6.69,0,0,1,.39,2.23,6,6,0,0,1-1.05,3.55,6.38,6.38,0,0,1-2.95,2.2,12.49,12.49,0,0,1-4.62.76,12.91,12.91,0,0,1-4.82-.82,6.6,6.6,0,0,1-3.19-2.52,7.79,7.79,0,0,1-1.15-4.37h5.47a3.3,3.3,0,0,0,.49,1.64,2.66,2.66,0,0,0,1.23,1,4.72,4.72,0,0,0,1.89.35,4.54,4.54,0,0,0,1.54-.23,2,2,0,0,0,.94-.63,1.5,1.5,0,0,0,.34-.93,1.4,1.4,0,0,0-.32-.85,2.48,2.48,0,0,0-1-.66,11.32,11.32,0,0,0-1.87-.56l-2.12-.45a9.65,9.65,0,0,1-4.44-2,5,5,0,0,1-1.61-3.92,5.88,5.88,0,0,1,1.09-3.54,7.1,7.1,0,0,1,3-2.36,11,11,0,0,1,4.46-.85,10.47,10.47,0,0,1,4.44.86,6.73,6.73,0,0,1,2.9,2.41,6.61,6.61,0,0,1,1,3.65Z" transform="translate(-2.39 -4.73)"/><rect class="cls-1" x="192.43" y="8.16" width="11.35" height="11.35"/></g></g></svg>