<svg xmlns="http://www.w3.org/2000/svg" viewBox="0 0 269.31 269.31"><defs><style>.cls-1{fill:#53e200;}</style></defs><g id="Layer_2" data-name="Layer 2"><g id="Layer_1-2" data-name="Layer 1"><rect width="269.31" height="269.31"/><path class="cls-1" d="M53.6,110.38H50.8a8.92,8.92,0,0,0-1.12-2.89,9.23,9.23,0,0,0-4.81-3.88,9.85,9.85,0,0,0-3.35-.55,9.65,9.65,0,0,0-5.26,1.5,10.64,10.64,0,0,0-3.8,4.42,18.64,18.64,0,0,0,0,14.27,10.51,10.51,0,0,0,3.8,4.4,9.65,9.65,0,0,0,5.26,1.5,10.1,10.1,0,0,0,3.35-.55,9.26,9.26,0,0,0,2.77-1.55,8.9,8.9,0,0,0,3.16-5.23h2.8a12.33,12.33,0,0,1-1.39,3.91,11.81,11.81,0,0,1-2.59,3.16A11.67,11.67,0,0,1,46,131a12.88,12.88,0,0,1-4.48.76,12.25,12.25,0,0,1-6.82-1.93A13,13,0,0,1,30,124.4a21.09,21.09,0,0,1,0-16.59,13,13,0,0,1,4.66-5.44,12.25,12.25,0,0,1,6.82-1.93,12.88,12.88,0,0,1,4.48.75,11.64,11.64,0,0,1,3.62,2.11,12.06,12.06,0,0,1,4,7.08Z"/><path class="cls-1" d="M66.86,131.35v-30.5H76.7A11.36,11.36,0,0,1,82.13,102a7.89,7.89,0,0,1,3.29,3.23A9.86,9.86,0,0,1,86.53,110a9.7,9.7,0,0,1-1.11,4.71,7.69,7.69,0,0,1-3.28,3.18A11.4,11.4,0,0,1,76.75,119H68.36v-2.54h8.31a9,9,0,0,0,4-.79A5.28,5.28,0,0,0,83,113.44a8.08,8.08,0,0,0,0-7,5.4,5.4,0,0,0-2.37-2.31,8.63,8.63,0,0,0-4-.82h-7v28Zm13.45-13.76,7.5,13.76H84.59l-7.43-13.76Z"/><path class="cls-1" d="M96,100.85h3.22l9,14.48h.27l9-14.48h3.22l-11,17.29v13.21H107V118.14Z"/><path class="cls-1" d="M132.75,131.35v-30.5h9.84A10.8,10.8,0,0,1,148,102.1a8.15,8.15,0,0,1,3.29,3.37,10.23,10.23,0,0,1,1.11,4.8,10.41,10.41,0,0,1-1.1,4.8,8.14,8.14,0,0,1-3.28,3.38,10.73,10.73,0,0,1-5.4,1.24H134.9v-2.5h7.66a8,8,0,0,0,4-.9,5.73,5.73,0,0,0,2.36-2.47,8.49,8.49,0,0,0,0-7.11,5.68,5.68,0,0,0-2.37-2.46,8,8,0,0,0-4-.89h-7v28Z"/><path class="cls-1" d="M163.84,103.36v-2.51H186v2.51h-9.66v28H173.5v-28Z"/><path class="cls-1" d="M222.66,116.1a18.79,18.79,0,0,1-1.7,8.29,13.08,13.08,0,0,1-4.66,5.45,13.05,13.05,0,0,1-13.66,0,13.08,13.08,0,0,1-4.66-5.45,21.15,21.15,0,0,1,0-16.57,13,13,0,0,1,4.67-5.45,13,13,0,0,1,13.65,0,13,13,0,0,1,4.66,5.45A18.75,18.75,0,0,1,222.66,116.1Zm-2.71,0a16.34,16.34,0,0,0-1.37-7,10.45,10.45,0,0,0-3.74-4.47,10.06,10.06,0,0,0-10.73,0,10.57,10.57,0,0,0-3.75,4.46,16.51,16.51,0,0,0-1.37,7,16.34,16.34,0,0,0,1.37,7,10.62,10.62,0,0,0,3.73,4.47,10.08,10.08,0,0,0,10.76,0,10.5,10.5,0,0,0,3.75-4.48A16.35,16.35,0,0,0,220,116.1Z"/><path class="cls-1" d="M34.16,164.46,26.66,139h7.7l3.48,15.66H38L42.17,139h6.06l4.13,15.71h.2L56,139h7.7l-7.5,25.45H49.63L45.3,150.24h-.2l-4.32,14.22Z"/><path class="cls-1" d="M104.45,151.74a14.33,14.33,0,0,1-1.65,7.16,11.09,11.09,0,0,1-4.47,4.41,13.81,13.81,0,0,1-12.54,0,11.13,11.13,0,0,1-4.45-4.42,16.34,16.34,0,0,1,0-14.31,11,11,0,0,1,4.45-4.41,13.85,13.85,0,0,1,12.54,0,11.09,11.09,0,0,1,4.47,4.41A14.35,14.35,0,0,1,104.45,151.74Zm-7.11,0a10.87,10.87,0,0,0-.6-3.86,5.17,5.17,0,0,0-7.56-2.39,5,5,0,0,0-1.78,2.39,12.72,12.72,0,0,0,0,7.72A5,5,0,0,0,89.18,158a4.95,4.95,0,0,0,7.56-2.38A10.91,10.91,0,0,0,97.34,151.74Z"/><path class="cls-1" d="M123,164.46V139h11a11.21,11.21,0,0,1,5,1,7.74,7.74,0,0,1,3.3,3,8.73,8.73,0,0,1,1.18,4.65,8.31,8.31,0,0,1-1.21,4.61,7.5,7.5,0,0,1-3.39,2.83,12.56,12.56,0,0,1-5.09,1h-6.56v-5.37h5.17a6.39,6.39,0,0,0,2.08-.3,2.68,2.68,0,0,0,1.33-1,3,3,0,0,0,.46-1.75,3.12,3.12,0,0,0-.46-1.78,2.75,2.75,0,0,0-1.33-1,5.86,5.86,0,0,0-2.08-.33h-2.44v19.93Zm14.91-11.68,6.37,11.68H136.8l-6.21-11.68Z"/><path class="cls-1" d="M171.59,164.46H161.8V139h9.69a14.33,14.33,0,0,1,6.79,1.52,10.63,10.63,0,0,1,4.43,4.38,15.73,15.73,0,0,1,0,13.66,10.53,10.53,0,0,1-4.4,4.37A14,14,0,0,1,171.59,164.46Zm-2.88-5.86h2.63a7.85,7.85,0,0,0,3.23-.61,4.12,4.12,0,0,0,2-2.1,9.93,9.93,0,0,0,.71-4.15,9.78,9.78,0,0,0-.72-4.16,4.15,4.15,0,0,0-2.09-2.1,8.35,8.35,0,0,0-3.36-.6h-2.43Z"/><path class="cls-1" d="M216.57,147a2.73,2.73,0,0,0-.93-1.94,3.83,3.83,0,0,0-2.5-.69,5.07,5.07,0,0,0-1.75.25,2.18,2.18,0,0,0-1,.69,1.67,1.67,0,0,0-.33,1,1.59,1.59,0,0,0,.16.82,1.84,1.84,0,0,0,.62.66,4.53,4.53,0,0,0,1.08.53,10.62,10.62,0,0,0,1.57.42l2.08.45a15.7,15.7,0,0,1,3.62,1.18,8.73,8.73,0,0,1,2.46,1.72,6.25,6.25,0,0,1,1.41,2.22,7.79,7.79,0,0,1,.47,2.69,7.2,7.2,0,0,1-1.26,4.25,7.65,7.65,0,0,1-3.54,2.64,15.06,15.06,0,0,1-5.54.91,15.74,15.74,0,0,1-5.79-1,8,8,0,0,1-3.83-3,9.41,9.41,0,0,1-1.37-5.24h6.56a4,4,0,0,0,.59,2,3.24,3.24,0,0,0,1.47,1.2,5.58,5.58,0,0,0,2.27.41,5.48,5.48,0,0,0,1.85-.27,2.43,2.43,0,0,0,1.13-.76,1.77,1.77,0,0,0,.4-1.1,1.65,1.65,0,0,0-.38-1,3,3,0,0,0-1.2-.79,12.7,12.7,0,0,0-2.25-.67l-2.53-.55a11.59,11.59,0,0,1-5.33-2.45,5.92,5.92,0,0,1-1.93-4.71,7,7,0,0,1,1.3-4.24,8.58,8.58,0,0,1,3.64-2.84,13.23,13.23,0,0,1,5.35-1,12.67,12.67,0,0,1,5.33,1,8,8,0,0,1,3.47,2.9,7.88,7.88,0,0,1,1.24,4.37Z"/><rect class="cls-1" x="233.54" y="152.57" width="11.35" height="11.35"/></g></g></svg>