<svg xmlns="http://www.w3.org/2000/svg" viewBox="0 0 173.28 173.28"><defs><style>.cls-1{fill:#53e200;}</style></defs><g id="Layer_2" data-name="Layer 2"><g id="Layer_1-2" data-name="Layer 1"><rect width="173.28" height="173.28"/><path class="cls-1" d="M93.53,106.63l-11.43-40h9.23l6.61,27.77h.34l7.3-27.77h7.9l7.28,27.83h.35l6.62-27.83H137l-11.44,40h-8.23l-7.62-26.14h-.31l-7.59,26.14Z"/><path class="cls-1" d="M73.32,78.93H69.54A11.93,11.93,0,0,0,68,75a12.38,12.38,0,0,0-6.47-5.23A13.56,13.56,0,0,0,57,69.05a12.92,12.92,0,0,0-7.1,2,14.13,14.13,0,0,0-5.12,6,21.75,21.75,0,0,0-1.92,9.61,21.76,21.76,0,0,0,1.92,9.64,14.16,14.16,0,0,0,5.12,5.94,13.08,13.08,0,0,0,7.1,2,13.31,13.31,0,0,0,4.52-.75,12.48,12.48,0,0,0,3.73-2.08,12.1,12.1,0,0,0,4.26-7.06h3.78a16.64,16.64,0,0,1-1.88,5.28,15.94,15.94,0,0,1-8.37,7.12,17.24,17.24,0,0,1-6,1,16.58,16.58,0,0,1-9.2-2.6,17.54,17.54,0,0,1-6.3-7.34,25.57,25.57,0,0,1-2.28-11.19,25.49,25.49,0,0,1,2.28-11.18,17.64,17.64,0,0,1,6.3-7.35,16.58,16.58,0,0,1,9.2-2.6,17.24,17.24,0,0,1,6,1,15.28,15.28,0,0,1,4.87,2.85,16,16,0,0,1,3.5,4.27A16.47,16.47,0,0,1,73.32,78.93Z"/><rect class="cls-1" x="147.03" y="79.2" width="14.88" height="14.88"/><rect class="cls-1" x="11.28" y="79.2" width="14.88" height="14.88"/></g></g></svg>